<svg xmlns="http://www.w3.org/2000/svg" width="50" height="50" viewBox="0 0 50 50">
  <g fill="none" fill-rule="evenodd">
    <circle cx="25" cy="25" r="25" fill="#FF006D" opacity=".3"/>
    <path fill="#FF006D" fill-rule="nonzero" d="M18.4668245,33.2515868 L16.72934,33.2515868 L16.72934,25.205015 C16.72934,20.6387563 20.4301785,16.9352939 24.9990612,16.9352939 C29.567318,16.9352939 33.2681083,20.6394303 33.2681083,25.205015 L33.2681083,33.2515868 L18.4675226,33.2515627 L18.4668245,33.2515868 Z M25.597328,20.2683811 L21.5180983,26.9865035 L24.7805577,26.9865035 L23.9637874,32.0250592 L28.0430171,25.306985 L24.7805577,25.306985 L25.597328,20.2683811 Z M31.8531194,12.8880562 C32.2360316,13.1112292 32.3669669,13.6016586 32.1462467,13.98599 L30.6799117,16.5355747 L29.2941946,15.7334644 L30.7598315,13.1838315 C30.8649248,13.0002093 31.0386781,12.8658745 31.2428447,12.8103971 C31.4470113,12.7549197 31.6648555,12.7828472 31.8484253,12.8880321 L31.8530953,12.8880321 L31.8531194,12.8880562 Z M24.9963892,11 C25.4760522,11 25.8637834,11.3610832 25.8637834,11.8094524 L25.8637834,14.6988405 L24.1289709,14.6988405 L24.1289709,11.8074303 C24.128995,11.3610832 24.5167262,11 24.9964132,11 L24.9963892,11 Z M18.1443771,12.8880562 C18.3281666,12.7817021 18.5467174,12.7528369 18.7518167,12.8078284 C18.9569159,12.8628199 19.1317107,12.9971494 19.2376409,13.1811836 L20.7039759,15.7307924 L19.3182588,16.5336008 L17.8505757,13.983318 C17.6300842,13.5997786 17.7611309,13.110156 18.1437272,12.8880321 L18.1443771,12.8880562 Z M13.1278235,17.9266359 C13.2333756,17.7423821 13.4080542,17.6078342 13.613147,17.5528105 C13.8182399,17.4977868 14.0368083,17.5268318 14.2204132,17.6335085 L16.760682,19.1071615 L15.9612437,20.4982227 L13.4202287,19.0225476 C13.0372668,18.8003971 12.9061812,18.3103089 13.1271013,17.9266359 L13.1278235,17.9266359 Z M36.8697212,17.9266359 C37.0904372,18.3109735 36.9594907,18.8014049 36.5765697,19.0245697 L34.0369509,20.4962247 L33.2375125,19.1045135 L35.7771314,17.6315105 C36.1586062,17.4113815 36.6462678,17.5412595 36.8677232,17.9219659 C36.8677232,17.9246379 36.8697212,17.9246379 36.8697212,17.9266359 Z M13.8959438,33.2515868 L36.1042006,33.2515868 C36.5838877,33.2515868 36.9742909,33.64199 36.9742909,34.121653 C36.9742909,34.6013159 36.5838877,34.9917192 36.1042006,34.9917192 L13.8959679,34.9917192 C13.4162808,34.9917192 13.0258776,34.60199 13.0258776,34.121653 C13.0253455,33.8907302 13.1168453,33.6691125 13.2801351,33.5058272 C13.4434249,33.3425419 13.6650451,33.2510482 13.8959679,33.2515868 L13.8959438,33.2515868 Z"/>
  </g>
</svg>
