<svg xmlns="http://www.w3.org/2000/svg" width="20" height="20" viewBox="0 0 20 20">
  <path fill="#FFF" d="M10.5,11.7844225 C12.4618421,11.7844225 14.0526316,10.1747476 14.0526316,8.189615 C14.0526316,6.20448241 12.4618421,4.5948075 10.5,4.5948075 C8.53815789,4.5948075 6.94736842,6.20448241 6.94736842,8.189615 C6.94736842,10.1747476 8.53815789,11.7844225 10.5,11.7844225 Z M8.68618421,6.35226894 C9.17171053,5.86097859 9.81513158,5.59136802 10.5,5.59136802 C11.1848684,5.59136802 11.8302632,5.86097859 12.3138158,6.35226894 C12.7993421,6.8435593 13.0657895,7.49461888 13.0657895,8.18761789 C13.0657895,8.88061689 12.7993421,9.53367358 12.3138158,10.0229668 C11.8282895,10.5142572 11.1848684,10.7838677 10.5,10.7838677 C9.81513158,10.7838677 9.16973684,10.5142572 8.68618421,10.0229668 C8.20065789,9.53167647 7.93421053,8.88061689 7.93421053,8.18761789 C7.93421053,7.49461888 8.20065789,6.8435593 8.68618421,6.35226894 Z M18,8.58903806 C18,4.39709309 14.6427632,1 10.5,1 C6.35723684,1 3,4.39709309 3,8.58903806 C3,11.4888494 4.60855263,14.0092089 6.97105263,15.2873627 L6.49736842,18.0014424 L5.56578947,18.0014424 L5.56578947,19 L15.4342105,19 L15.4342105,18.0014424 L14.5006579,18.0014424 L14.0269737,15.2873627 C16.3914474,14.0092089 18,11.4888494 18,8.58903806 Z M4.49802632,11.1533341 C4.15855263,10.3405082 3.98684211,9.47775435 3.98684211,8.58903806 C3.98684211,7.69832464 4.15855263,6.83557084 4.49802632,6.02474204 C4.82565789,5.23987574 5.29539474,4.53489404 5.89342105,3.92976811 C6.49144737,3.32464218 7.18815789,2.84932875 7.96381579,2.51780761 C8.76710526,2.17430378 9.61973684,2.00055475 10.4980263,2.00055475 C11.3763158,2.00055475 12.2309211,2.17430378 13.0322368,2.51780761 C13.8078947,2.84932875 14.5046053,3.32464218 15.1026316,3.92976811 C15.7006579,4.53489404 16.1703947,5.23987574 16.4980263,6.02474204 C16.8375,6.83756796 17.0092105,7.70032176 17.0092105,8.58903806 C17.0092105,9.47975147 16.8375,10.3425053 16.4980263,11.1533341 C16.1703947,11.9382004 15.7006579,12.6431821 15.1026316,13.248308 C14.5046053,13.8534339 13.8078947,14.3287474 13.0322368,14.6602685 C12.2289474,15.0037723 11.3763158,15.1775214 10.4980263,15.1775214 C9.61973684,15.1775214 8.76513158,15.0037723 7.96381579,14.6602685 C7.18815789,14.3287474 6.49144737,13.8534339 5.89342105,13.248308 C5.29539474,12.6431821 4.82565789,11.9382004 4.49802632,11.1533341 Z M13.5,17.9994452 L7.5,17.9994452 L7.89868421,15.708754 C8.70789474,16.0123155 9.58421053,16.1780761 10.4980263,16.1780761 C11.4118421,16.1780761 12.2881579,16.0123155 13.0973684,15.708754 L13.5,17.9994452 Z M10.0065789,12.4834128 L10.9934211,12.4834128 L10.9934211,13.4819705 L10.0065789,13.4819705 L10.0065789,12.4834128 Z"/>
</svg>
