<svg xmlns="http://www.w3.org/2000/svg" width="20" height="20" viewBox="0 0 20 20">
  <path fill="#FFF" d="M9.49173808,11.8674179 L9.49173808,9.88723648 C9.49173808,9.60471156 9.72750411,9.37567986 10,9.37567986 C10.2807053,9.37567986 10.5082619,9.60356034 10.5082619,9.88723648 L10.5082619,11.8674179 L12.4884434,11.8674179 C12.7709683,11.8674179 13,12.103184 13,12.3756799 C13,12.6563852 12.7721195,12.8839418 12.4884434,12.8839418 L10.5082619,12.8839418 L10.5082619,14.8641232 C10.5082619,15.1466482 10.2724959,15.3756799 10,15.3756799 C9.71929469,15.3756799 9.49173808,15.1477994 9.49173808,14.8641232 L9.49173808,12.8839418 L7.51155663,12.8839418 C7.2290317,12.8839418 7,12.6481758 7,12.3756799 C7,12.0949746 7.22788048,11.8674179 7.51155663,11.8674179 L9.49173808,11.8674179 Z M18.0592168,9.0579868 L10.8994949,1.31140912 C10.5127931,0.918317472 9.88363526,0.918140049 9.49675887,1.31140912 L1.89131745,9.13426119 C1.79971057,9.25117334 1.65846404,9.32610835 1.5,9.32610835 C1.22385763,9.32610835 1,9.09855174 1,8.81784644 C1,8.66890758 1.06302121,8.53493133 1.16343525,8.44196953 L1.16107178,8.43962783 L8.78965209,0.592618226 C9.56753125,-0.198114482 10.8298542,-0.196964126 11.6066017,0.592618226 L18.9005127,8.50551823 L18.8968533,8.50862792 C18.961546,8.59429287 19,8.70150474 19,8.81784644 C19,9.09855174 18.7761424,9.32610835 18.5,9.32610835 C18.3093036,9.32610835 18.1435413,9.21758871 18.0592168,9.0579868 Z M16.5,11.359156 C16.5,11.0784507 16.7238576,10.8508941 17,10.8508941 C17.2761424,10.8508941 17.5,11.0784507 17.5,11.359156 L17.5,17.4590818 C17.5,18.8475982 16.5101979,20 15.2551973,20 L4.74480274,20 C3.48670534,20 2.5,18.8536173 2.5,17.4590818 L2.5,11.359156 C2.5,11.0784507 2.72385763,10.8508941 3,10.8508941 C3.27614237,10.8508941 3.5,11.0784507 3.5,11.359156 L3.5,17.4590818 C3.5,18.3201704 4.07091528,18.9834762 4.74480274,18.9834762 L15.2551973,18.9834762 C15.9254563,18.9834762 16.5,18.3145493 16.5,17.4590818 L16.5,11.359156 Z"/>
</svg>
