<svg xmlns="http://www.w3.org/2000/svg" width="24" height="24" viewBox="0 0 24 24">
  <path fill="#FFF" fill-opacity=".8" d="M6.93318618,3.23409607 C7.42322487,2.97937951 8.02696829,3.17014578 8.28168485,3.66018447 C8.53640141,4.15022317 8.34563514,4.75396659 7.85559645,5.00868315 C4.89614144,6.54697435 3,9.60466597 3,13 C3,17.9705627 7.02943725,22 12,22 C16.9705627,22 21,17.9705627 21,13 C21,9.52369235 19.0118216,6.40525734 15.9424805,4.90693915 C15.4461732,4.66466359 15.2402397,4.06592383 15.4825153,3.56961647 C15.7247909,3.07330911 16.3235306,2.86737565 16.819838,3.10965122 C20.5697604,4.94019952 23,8.75200234 23,13 C23,19.0751322 18.0751322,24 12,24 C5.92486775,24 1,19.0751322 1,13 C1,8.85109323 3.31789878,5.11328152 6.93318618,3.23409607 Z M11,0.995577499 C11,0.445735229 11.4438648,0 12,0 C12.5522847,0 13,0.444836974 13,0.995577499 L13,10.0044225 C13,10.5542648 12.5561352,11 12,11 C11.4477153,11 11,10.555163 11,10.0044225 L11,0.995577499 Z"/>
</svg>
