<svg xmlns="http://www.w3.org/2000/svg" width="20" height="20" viewBox="0 0 20 20">
  <path fill="#FFF" d="M9.97982729,10.8563233 C11.6965022,10.8563233 13.0936911,12.2351508 13.0936911,13.9324471 C13.0936911,15.6297434 11.6965022,17.0085709 9.97982729,17.0085709 C8.26315233,17.0085709 6.86596348,15.6297434 6.86596348,13.9324471 C6.86596348,12.2351508 8.26315233,10.8563233 9.97982729,10.8563233 Z M9.97982729,15.816077 C11.0346149,15.816077 11.8917645,14.9701918 11.8917645,13.9324471 C11.8917645,12.8947023 11.0346149,12.0488172 9.97982729,12.0488172 C8.92503965,12.0488172 8.06789011,12.8947023 8.06789011,13.9324471 C8.06789011,14.9701918 8.92503965,15.816077 9.97982729,15.816077 Z M15.697364,11.2337574 L15.7732962,11.3899303 L14.8597413,12.2914796 L14.7198546,11.9652767 C13.9205864,10.1014553 12.0636047,8.86125841 9.97982729,8.86125841 C7.89569635,8.86125841 6.0389278,10.1011335 5.23981197,11.9652486 L5.09994755,12.2915134 L4.18635838,11.3899303 L4.26229055,11.2337574 C5.31247313,9.07380234 7.52008171,7.66810008 9.97982729,7.66810008 C12.4395729,7.66810008 14.6471814,9.07380234 15.697364,11.2337574 Z M19.8792614,7.04932342 L20,7.21744336 L19.1344319,8.07163643 L18.9700164,7.83719584 C16.9465844,4.95197838 13.6273639,3.19249382 10.0141676,3.19249382 C6.38390843,3.19249382 3.04976249,4.96926132 1.02998477,7.87684201 L0.865876433,8.11308495 L0,7.25858756 L0.119535244,7.09067533 C2.37276935,3.92553726 6.03379276,2.00021711 10.0141676,2 C13.9770118,2.00021606 17.6231135,3.907797 19.8792614,7.04932342 Z M10.0148409,4.83338554 C13.2166651,4.83338554 16.141534,6.46754917 17.8196401,9.10109445 L17.9247642,9.26607163 L17.046738,10.1325592 L16.8876171,9.87147709 C15.4461769,7.506393 12.8572264,6.02654387 10.0148409,6.02654387 C7.15536249,6.02654387 4.55337442,7.52501462 3.11724268,9.91406983 L2.95872649,10.177767 L2.07877104,9.30937565 L2.18239083,9.14475451 C3.81322123,6.55384847 6.64813807,4.91772373 9.77276718,4.83716836 L10.0148409,4.83338554 Z"/>
</svg>
