<svg xmlns="http://www.w3.org/2000/svg" width="20" height="20" viewBox="0 0 20 20">
  <path fill="#FFF" d="M2.02228771,17.9812881 L18.492281,17.9812881 C18.7726865,17.9812881 19,18.2175616 19,18.490644 C19,18.7719536 18.7774859,19 18.492281,19 L1.90889768,19 C1.82857914,19 1.7526166,18.9806146 1.68510444,18.9465316 C1.63035454,18.9667478 1.57164953,18.9777903 1.51114385,18.9777903 C1.2288469,18.9777903 1,18.7560544 1,18.4718472 L1,1.94646937 C1,1.66704472 1.23710286,1.44052629 1.51114385,1.44052629 C1.79344081,1.44052629 2.02228771,1.66226211 2.02228771,1.94646937 L2.02228771,17.9812881 Z M17.3126453,3.22522996 L12.8466769,6.43683661 L9.49425864,3.85404919 L4.31932776,6.65564304 C4.07386863,6.78852922 3.76185242,6.70661288 3.62242005,6.47267779 C3.48298767,6.23874269 3.56893934,5.94137529 3.81439847,5.80848911 L9.59511727,2.678935 L12.8683513,5.20071687 L16.5511924,2.55227959 L14.2092684,1.95801294 C13.936475,1.88879123 13.7742119,1.62191565 13.8468436,1.36192964 C13.9194753,1.10194364 14.1994976,0.947298629 14.472291,1.01652034 L18.6910006,2.08702408 L17.6446081,5.80886989 C17.5715442,6.06874588 17.2912652,6.22296785 17.0185873,6.15333428 C16.7459093,6.08370072 16.5840901,5.81658044 16.657154,5.55670445 L17.3126453,3.22522996 Z M5.08915082,10.7121421 C5.08915082,10.4343518 5.32625368,10.2091583 5.60029467,10.2091583 C5.88259163,10.2091583 6.11143853,10.444119 6.11143853,10.7121421 L6.11143853,14.5776367 C6.11143853,14.855427 5.87433566,15.0806205 5.60029467,15.0806205 C5.31799772,15.0806205 5.08915082,14.8456597 5.08915082,14.5776367 L5.08915082,10.7121421 Z M9.17830164,7.79768933 C9.17830164,7.51524628 9.4154045,7.28628095 9.68944549,7.28628095 C9.97174245,7.28628095 10.2005893,7.51114454 10.2005893,7.79768933 L10.2005893,14.5692121 C10.2005893,14.8516552 9.96348648,15.0806205 9.68944549,15.0806205 C9.40714854,15.0806205 9.17830164,14.8557569 9.17830164,14.5692121 L9.17830164,7.79768933 Z M13.2674525,10.7121421 C13.2674525,10.4343518 13.5045553,10.2091583 13.7785963,10.2091583 C14.0608933,10.2091583 14.2897402,10.444119 14.2897402,10.7121421 L14.2897402,14.5776367 C14.2897402,14.855427 14.0526373,15.0806205 13.7785963,15.0806205 C13.4962994,15.0806205 13.2674525,14.8456597 13.2674525,14.5776367 L13.2674525,10.7121421 Z M17.3566033,7.79768933 C17.3566033,7.51524628 17.5937061,7.28628095 17.8677471,7.28628095 C18.1500441,7.28628095 18.378891,7.51114454 18.378891,7.79768933 L18.378891,14.5692121 C18.378891,14.8516552 18.1417881,15.0806205 17.8677471,15.0806205 C17.5854502,15.0806205 17.3566033,14.8557569 17.3566033,14.5692121 L17.3566033,7.79768933 Z"/>
</svg>
