<svg xmlns="http://www.w3.org/2000/svg" width="30" height="32" viewBox="0 0 30 32">
  <g fill="none" fill-rule="evenodd">
    <path fill="#DDD" d="M11.8268334,30.5683052 L0.487079678,24.9147635 L15.0370881,18.1460267 L18.3607543,19.6621873 L8.93922511,24.0628262 L10.7216205,24.8720176 L20.1742257,20.6006211 L24.1509819,22.472964 L14.6352222,26.9270997 L16.4372836,27.7630718 L25.8841831,23.3177299 L28.2277882,24.4269328 C29.4645118,25.1029534 29.9958132,24.9297682 29.1651912,25.5488005 L18.1343257,30.7788936 C16.6157297,31.4455917 13.2557755,31.2588432 11.8268334,30.5683052 Z"/>
    <path fill="#F4F4F4" d="M0.535714286,25.0841671 L0.535714286,7.92303404 C0.535714286,7.324277 0.969005995,6.63536882 1.50349841,6.38764627 L15.2856445,0 L15.2856445,4.41420218 L5.93274798,8.81585239 L5.93274798,10.8568156 L15.2856445,6.59305262 L15.2856445,11.1361259 L5.93274798,15.4840209 L5.93274798,17.4887404 L15.2856445,13.2893604 L15.0327628,18.1361714 L0.535714286,25.0841671 Z"/>
    <path fill="#D1423F" d="M15,1.46647641e-15 L29.2675596,6.87966874 C29.5339655,7.00812693 29.7499302,7.35800914 29.7499302,7.65454335 L29.7499302,11.6830668 L20.3970337,7.48368688 L20.3970337,9.48840631 L28.7842334,13.3873764 C29.317573,13.6353108 29.7499302,14.3224897 29.7499302,14.9129463 L29.7499302,18.3793746 L20.3970337,14.1156117 L20.3970337,16.1565748 L29.2602465,20.3277706 C29.5306913,20.4550471 29.7499302,20.8003738 29.7499302,21.090898 L29.7499302,22.6691398 C29.7499302,24.1584589 29.8264422,24.4144783 29.461016,24.9764521 L15,18.1362396 L15,1.46647641e-15 Z"/>
  </g>
</svg>
